# Blender v2.77 (sub 0) OBJ File: 'sword.blend'
# www.blender.org
o Sword
v 0.271138 -0.063809 -0.271138
v 0.271138 -0.063809 0.271138
v -0.271138 -0.063809 0.271138
v -0.271138 -0.063809 -0.271138
v 0.328703 0.929417 -0.328703
v 0.328703 0.929417 0.328703
v -0.328703 0.929417 0.328703
v -0.328703 0.929417 -0.328703
v 0.785163 1.163723 -0.785162
v 0.785162 1.163723 0.785163
v -0.785163 1.163723 -0.785163
v -0.785163 1.163723 0.785163
v 0.244023 1.258055 -0.244022
v 0.244022 1.258055 0.244023
v -0.244023 1.258055 -0.244023
v -0.244023 1.258055 0.244023
v 0.048158 7.048810 -0.048158
v 0.048158 7.048810 0.048159
v -0.048159 7.048810 -0.048158
v -0.048159 7.048810 0.048159
vt 0.1480 0.8496
vt 0.0000 0.9963
vt 0.0000 0.8496
vt 0.3040 0.3013
vt 0.0000 0.4248
vt 0.1246 0.3013
vt 1.0000 0.8222
vt 0.8572 0.9844
vt 0.8572 0.8377
vt 0.5715 1.0000
vt 0.7143 0.8377
vt 0.7143 0.9844
vt 0.8572 0.8222
vt 0.7143 0.9844
vt 0.4286 0.9844
vt 0.5715 0.8222
vt 0.5715 1.0000
vt 0.0000 0.4248
vt 0.1477 0.7032
vt 0.0000 0.8496
vt 0.3040 0.1235
vt 0.4286 0.4248
vt 0.1246 0.1235
vt 0.0000 0.0000
vt 0.4286 0.0000
vt 0.5618 0.8222
vt 0.6416 0.0000
vt 0.6950 0.8222
vt 0.4286 0.4248
vt 0.1477 0.5712
vt 0.2809 0.7032
vt 0.4286 0.8496
vt 0.2809 0.5712
vt 0.1743 0.8757
vt 0.1480 0.8496
vt 0.1743 0.8496
vt 0.4286 0.8222
vt 0.5084 0.0000
vt 0.5618 0.8222
vt 0.6950 0.8222
vt 0.7748 0.0000
vt 0.8282 0.8222
vt 0.8282 0.8222
vt 0.9080 0.0000
vt 0.9615 0.8222
vt 0.1480 0.9963
vt 1.0000 1.0000
vt 0.5715 0.8222
vt 0.8572 1.0000
vt 0.4286 0.8377
vt 0.6153 0.0000
vt 0.1480 0.8757
vt 0.4821 0.0000
vt 0.7485 0.0000
vt 0.8817 0.0000
vn 0.0000 -1.0000 0.0000
vn -0.0000 -0.8896 0.4567
vn 0.9983 -0.0579 0.0000
vn -0.0000 -0.0579 0.9983
vn -0.9983 -0.0579 -0.0000
vn 0.0000 -0.0579 -0.9983
vn -0.0000 0.9851 0.1717
vn 0.4567 -0.8896 0.0000
vn -0.4567 -0.8896 -0.0000
vn 0.0000 -0.8896 -0.4567
vn -0.9994 0.0338 -0.0000
vn 0.1717 0.9851 0.0000
vn -0.1717 0.9851 0.0000
vn 0.0000 0.9851 -0.1717
vn 0.0000 1.0000 0.0000
vn 0.0000 0.0338 -0.9994
vn -0.0000 0.0338 0.9994
vn 0.9994 0.0338 0.0000
s off
f 2/1/1 4/2/1 1/3/1
f 6/4/2 12/5/2 7/6/2
f 5/7/3 2/8/3 1/9/3
f 6/10/4 3/11/4 2/12/4
f 7/13/5 4/14/5 3/11/5
f 1/15/6 8/16/6 5/17/6
f 10/18/7 16/19/7 12/20/7
f 5/21/8 10/22/8 6/4/8
f 8/23/9 12/5/9 11/24/9
f 8/23/10 9/25/10 5/21/10
f 16/26/11 19/27/11 15/28/11
f 9/29/12 14/30/12 10/18/12
f 12/20/13 15/31/13 11/32/13
f 11/32/14 13/33/14 9/29/14
f 19/34/15 18/35/15 17/36/15
f 15/37/16 17/38/16 13/39/16
f 14/40/17 20/41/17 16/42/17
f 13/43/18 18/44/18 14/45/18
f 2/1/1 3/46/1 4/2/1
f 6/4/2 10/22/2 12/5/2
f 5/7/3 6/47/3 2/8/3
f 6/10/4 7/48/4 3/11/4
f 7/13/5 8/49/5 4/14/5
f 1/15/6 4/50/6 8/16/6
f 10/18/7 14/30/7 16/19/7
f 5/21/8 9/25/8 10/22/8
f 8/23/9 7/6/9 12/5/9
f 8/23/10 11/24/10 9/25/10
f 16/26/11 20/51/11 19/27/11
f 9/29/12 13/33/12 14/30/12
f 12/20/13 16/19/13 15/31/13
f 11/32/14 15/31/14 13/33/14
f 19/34/15 20/52/15 18/35/15
f 15/37/16 19/53/16 17/38/16
f 14/40/17 18/54/17 20/41/17
f 13/43/18 17/55/18 18/44/18
