# Blender v2.66 (sub 1) OBJ File: ''
# www.blender.org
o Cube
v 1.000000 -1.000000 -1.000000
v 1.000000 -1.000000 1.000000
v -1.000000 -1.000000 1.000000
v -1.000000 -1.000000 -1.000000
v 1.000000 1.000000 -0.999999
v 0.999999 1.000000 1.000001
v -1.000000 1.000000 1.000000
v -1.000000 1.000000 -1.000000
vt 0.000000 0.000000
vt 0.000000 -1.000000
vt -1.000000 -1.000000
vt 0.000000 1.000000
vt -1.000000 1.000000
vt -1.000000 0.000000
vt 1.000000 0.000000
vt 1.000000 1.000000
vn 0.000000 -1.000000 0.000000
vn -0.000000 1.000000 0.000000
vn 1.000000 -0.000000 0.000001
vn -0.000000 -0.000000 1.000000
vn -1.000000 -0.000000 -0.000000
vn 0.000000 0.000000 -1.000000
vn 1.000000 0.000000 -0.000000
s off
f 1/1/1 2/2/1 3/3/1
f 5/4/2 8/5/2 7/6/2
f 1/1/3 5/4/3 6/5/3
f 2/1/4 6/4/4 3/6/4
f 3/1/5 7/4/5 4/7/5
f 5/1/6 1/2/6 4/3/6
f 4/6/1 1/1/1 3/3/1
f 6/1/2 5/4/2 7/6/2
f 2/6/7 1/1/7 6/5/7
f 6/4/4 7/5/4 3/6/4
f 7/4/5 8/8/5 4/7/5
f 8/6/6 5/1/6 4/3/6
